<svg id="Filled" height="512" viewBox="0 0 512 512" width="512" xmlns="http://www.w3.org/2000/svg"><path d="m312 440h-288l8-304 16-64h240l16 64z" fill="#c48669"/><path d="m48 24h240v48h-240z" fill="#d1ad8f"/><path d="m192 120-24-16-24 16v-96h48z" fill="#a36f58"/><path d="m184 312h304v176h-304z" fill="#b1bd70"/><path d="m184 376h304v56h-304z" fill="#8f9e46"/><ellipse cx="336" cy="400" fill="#ffd33a" rx="88" ry="56"/><path d="m24 440h160v48h-160z" fill="#a36f58"/><path d="m280 384h24a32 32 0 0 1 32 32v8a0 0 0 0 1 0 0h-24a32 32 0 0 1 -32-32v-8a0 0 0 0 1 0 0z" fill="#8f9e46" transform="matrix(-1 0 0 -1 616 808)"/><path d="m368 384h24a0 0 0 0 1 0 0v8a32 32 0 0 1 -32 32h-24a0 0 0 0 1 0 0v-8a32 32 0 0 1 32-32z" fill="#8f9e46"/><ellipse cx="128" cy="232" fill="#663c28" rx="39.453" ry="55.234" transform="matrix(.707 -.707 .707 .707 -126.558 158.461)"/><ellipse cx="208" cy="224" fill="#734b39" rx="55.234" ry="39.453" transform="matrix(.707 -.707 .707 .707 -97.47 212.686)"/><path d="m24 496h464a8 8 0 0 0 8-8v-176a8 8 0 0 0 -8-8h-171.577l-4.423-168.211a7.946 7.946 0 0 0 -.236-1.729l-15.764-63.045v-47.015a8 8 0 0 0 -8-8h-240a8 8 0 0 0 -8 8v47.015l-15.761 63.045a7.946 7.946 0 0 0 -.239 1.729l-8 304v.211 48a8 8 0 0 0 8 8zm456-16h-288v-40h68.765a83.891 83.891 0 0 0 8.714 6.347c17.889 11.383 41.513 17.653 66.521 17.653s48.632-6.27 66.521-17.653a83.891 83.891 0 0 0 8.714-6.347h68.765zm-233.192-56h-54.808v-40h50.938a45.19 45.19 0 0 0 -2.938 16 46.454 46.454 0 0 0 6.808 24zm113.192 8a40.045 40.045 0 0 0 40-40v-8a8 8 0 0 0 -8-8h-24a39.788 39.788 0 0 0 -24 8.022v-8.022a8 8 0 0 0 -16 0v8.022a39.788 39.788 0 0 0 -24-8.022h-24a8 8 0 0 0 -8 8v8a40.045 40.045 0 0 0 40 40h16v15.758c-18.956-1.142-36.454-6.334-49.93-14.909-14.232-9.057-22.07-20.723-22.07-32.849s7.838-23.792 22.07-32.849c15.353-9.77 35.93-15.151 57.93-15.151s42.577 5.381 57.93 15.151c14.232 9.057 22.07 20.723 22.07 32.849s-7.838 23.792-22.07 32.849c-13.476 8.575-30.974 13.767-49.93 14.909v-15.758zm-16-16a24.027 24.027 0 0 1 24-24h16a24.027 24.027 0 0 1 -24 24zm-16 0h-16a24.027 24.027 0 0 1 -24-24h16a24.027 24.027 0 0 1 24 24zm152 8h-54.808a46.454 46.454 0 0 0 6.808-24 45.19 45.19 0 0 0 -2.938-16h50.938zm0-104v48h-60.6a75.68 75.68 0 0 0 -16.879-14.347c-17.889-11.383-41.513-17.653-66.521-17.653s-48.632 6.27-66.521 17.653a75.68 75.68 0 0 0 -16.879 14.347h-60.6v-48zm-280-288h80v32h-80zm-48 0h32v73.052l-11.562-7.708a8 8 0 0 0 -8.876 0l-11.562 7.708zm-96 0h80v32h-80zm-16.026 105.089 14.272-57.089h81.754v40a8 8 0 0 0 12.438 6.656l19.562-13.041 19.562 13.041a8 8 0 0 0 12.438-6.656v-40h81.754l14.272 57.088 4.392 166.912h-116.418a8 8 0 0 0 -8 8v120h-143.787zm-7.974 310.911h144v32h-144z"/><path d="m201.425 279.234c14.276-2.379 28.528-10.079 40.129-21.679s19.3-25.854 21.68-40.13c2.544-15.266-1.192-28.81-10.521-38.139s-22.873-13.065-38.138-10.52c-14.276 2.379-28.528 10.079-40.129 21.679a84.707 84.707 0 0 0 -9.619 11.474c-1.058-1.183-2.144-2.345-3.273-3.474-11.6-11.6-25.853-19.3-40.129-21.679-15.266-2.546-28.809 1.192-38.138 10.52s-13.065 22.873-10.521 38.139c2.379 14.276 10.078 28.528 21.68 40.13s25.853 19.3 40.129 21.679a55.545 55.545 0 0 0 9.142.78c11.493 0 21.579-3.883 29-11.3.257-.257.5-.531.746-.8a43.029 43.029 0 0 0 18.822 4.1 55.548 55.548 0 0 0 9.14-.78zm-95.666-24.994c-11.636-11.64-17.893-26.316-17.685-38.523a54.1 54.1 0 0 1 11.761.887c11.27 2.2 17.95 7.918 20.419 17.475 4.15 16.058 11.671 27.292 22.352 33.391a36.574 36.574 0 0 0 8.614 3.558c-13.192 3.386-31.512-2.839-45.461-16.788zm48.977 1.138a20.506 20.506 0 0 1 -4.4-1.923c-6.683-3.919-11.59-11.784-14.586-23.38-5.807-22.468-25.767-29.477-42.161-30.375.325-.377.661-.745 1.016-1.1 5.574-5.576 14.163-7.728 24.193-6.053 11.016 1.836 22.183 7.948 31.447 17.212a68.982 68.982 0 0 1 6.351 7.327 65.048 65.048 0 0 0 -3.826 13.488 47.713 47.713 0 0 0 1.966 24.804zm20.964 3.038c-.377-.325-.745-.662-1.1-1.017-12.056-12.055-6.946-37.535 11.158-55.639 11.45-11.45 25.85-17.7 37.939-17.7a28.332 28.332 0 0 1 10.59 1.931l-2.437.688a21.132 21.132 0 0 1 -2.4 14.992c-3.919 6.683-11.785 11.59-23.38 14.587-22.463 5.803-29.47 25.763-30.37 42.158zm34.378-26.671c16.059-4.149 27.294-11.67 33.392-22.351a36.563 36.563 0 0 0 3.557-8.617c3.387 13.192-2.837 31.514-16.786 45.463-11.651 11.651-26.351 17.91-38.567 17.686-.334-9.657 1.4-27.786 18.404-32.181z"/></svg>