<svg id="Filled" height="512" viewBox="0 0 512 512" width="512" xmlns="http://www.w3.org/2000/svg"><path d="m40 24h320v464h-320z" fill="#d49073"/><path d="m40 376v112h320v-48s-41.143-36.571-92.571-27.429-123.429 9.143-123.429-36.571z" fill="#e9eef2"/><path d="m72 72h256v64h-256z" fill="#e9eef2"/><path d="m360 24h112v464h-112z" fill="#c48669"/><path d="m156.968 269.193 31.761-79.236a16 16 0 0 0 -29.7-11.906l-31.761 79.237c-11.449 2.862-22.23 12.455-27.738 26.195-8.219 20.506-1.584 42.459 14.82 49.035s36.366-4.717 44.585-25.223c5.505-13.74 4.335-28.123-1.967-38.102z" fill="#e1e3e6"/><path d="m72 296h-32v112h32a112 112 0 0 0 112-112z" fill="#eb423f"/><g fill="#ffd33a"><circle cx="288" cy="416" r="16"/><circle cx="232" cy="360" r="16"/><circle cx="272" cy="304" r="16"/><circle cx="312" cy="248" r="16"/><circle cx="216" cy="248" r="16"/><circle cx="272" cy="192" r="16"/><circle cx="56" cy="256" r="16"/><circle cx="88" cy="192" r="16"/></g><path d="m72 144h256a8 8 0 0 0 8-8v-64a8 8 0 0 0 -8-8h-256a8 8 0 0 0 -8 8v64a8 8 0 0 0 8 8zm8-64h240v48h-240z"/><path d="m272 216a24 24 0 1 0 -24-24 24.028 24.028 0 0 0 24 24zm0-32a8 8 0 1 1 -8 8 8.009 8.009 0 0 1 8-8z"/><path d="m312 224a24 24 0 1 0 24 24 24.028 24.028 0 0 0 -24-24zm0 32a8 8 0 1 1 8-8 8.009 8.009 0 0 1 -8 8z"/><path d="m272 280a24 24 0 1 0 24 24 24.027 24.027 0 0 0 -24-24zm0 32a8 8 0 1 1 8-8 8.009 8.009 0 0 1 -8 8z"/><path d="m232 336a24 24 0 1 0 24 24 24.027 24.027 0 0 0 -24-24zm0 32a8 8 0 1 1 8-8 8.009 8.009 0 0 1 -8 8z"/><path d="m32 24v464a8 8 0 0 0 8 8h432a8 8 0 0 0 8-8v-464a8 8 0 0 0 -8-8h-432a8 8 0 0 0 -8 8zm336 8h96v448h-96zm-320 246.624a24 24 0 1 0 0-45.248v-201.376h304v392.27a138.772 138.772 0 0 0 -42.108-18.087 23.99 23.99 0 0 0 -42.979-1.635c-.294.05-.593.095-.885.146-16 2.846-46.865 7.021-73.8 3.024-22.231-3.3-35.356-11.171-39.073-23.406a119.7 119.7 0 0 0 38.845-88.312 8 8 0 0 0 -8-8h-13.563a46.519 46.519 0 0 0 -4.626-19.366l30.343-75.7a24 24 0 1 0 -44.554-17.859l-30.342 75.7c-12.716 4.615-23.433 15.458-29.156 29.737a58.144 58.144 0 0 0 -2.428 7.488h-41.674zm0-22.624a8 8 0 1 1 8 8 8.009 8.009 0 0 1 -8-8zm248 160a8 8 0 1 1 -8-8 8.009 8.009 0 0 1 8 8zm-145.8-142.535a29.646 29.646 0 0 1 4.213 14.535h-48.021c.184-.514.357-1.03.561-1.54 4.354-10.863 12.881-19.068 22.253-21.412a8 8 0 0 0 5.484-4.784l31.762-79.237a8 8 0 0 1 14.848 5.953l-31.761 79.237a8 8 0 0 0 .661 7.248zm-102.2 30.535h127.7a104.139 104.139 0 0 1 -103.7 96h-24zm0 112h24a119.318 119.318 0 0 0 68.085-21.242c9.067 18.782 31.4 26.057 49.794 28.786a183.213 183.213 0 0 0 26.7 1.81 304.543 304.543 0 0 0 47.99-4.179 24 24 0 0 0 46.391 1.814 127.366 127.366 0 0 1 41.04 20.823v36.188h-304z"/><path d="m392 80h32a8 8 0 0 0 0-16h-32a8 8 0 0 0 0 16z"/><path d="m392 160h32a8 8 0 0 0 0-16h-32a8 8 0 0 0 0 16z"/><path d="m440 184h-48a8 8 0 0 0 0 16h48a8 8 0 0 0 0-16z"/><path d="m440 104h-48a8 8 0 0 0 0 16h48a8 8 0 0 0 0-16z"/><path d="m392 384h32a8 8 0 0 0 0-16h-32a8 8 0 0 0 0 16z"/><path d="m440 408h-48a8 8 0 0 0 0 16h48a8 8 0 0 0 0-16z"/><path d="m392 304h32a8 8 0 0 0 0-16h-32a8 8 0 0 0 0 16z"/><path d="m440 328h-48a8 8 0 0 0 0 16h48a8 8 0 0 0 0-16z"/><path d="m240 248a24 24 0 1 0 -24 24 24.027 24.027 0 0 0 24-24zm-32 0a8 8 0 1 1 8 8 8.009 8.009 0 0 1 -8-8z"/><path d="m112 192a24 24 0 1 0 -24 24 24.027 24.027 0 0 0 24-24zm-24 8a8 8 0 1 1 8-8 8.009 8.009 0 0 1 -8 8z"/><path d="m440 248h-48a8 8 0 0 0 0 16h48a8 8 0 0 0 0-16z"/></svg>