<svg id="Filled" height="512" viewBox="0 0 512 512" width="512" xmlns="http://www.w3.org/2000/svg"><path d="m476.641 272h-441.282l12.841-83.534a32 32 0 0 1 31.8-28.466h352a32 32 0 0 1 31.8 28.466z" fill="#d49073"/><g fill="#f7cca9"><path d="m152 264c0 30.928-17.909 56-40 56s-40-25.072-40-56 17.909-72 40-72 40 41.072 40 72z"/><path d="m248 264c0 30.928-17.909 56-40 56s-40-25.072-40-56 17.909-72 40-72 40 41.072 40 72z"/><path d="m344 264c0 30.928-17.909 56-40 56s-40-25.072-40-56 17.909-72 40-72 40 41.072 40 72z"/><path d="m440 264c0 30.928-17.909 56-40 56s-40-25.072-40-56 17.909-72 40-72 40 41.072 40 72z"/></g><path d="m24 272h464v32h-464z" fill="#c48669"/><path d="m124.892 352h-25.784a32 32 0 0 1 -31.565-26.739l-3.543-21.261h96l-3.543 21.261a32 32 0 0 1 -31.565 26.739z" fill="#a36f58"/><path d="m220.892 352h-25.784a32 32 0 0 1 -31.565-26.739l-3.543-21.261h96l-3.543 21.261a32 32 0 0 1 -31.565 26.739z" fill="#a36f58"/><path d="m316.892 352h-25.784a32 32 0 0 1 -31.565-26.739l-3.543-21.261h96l-3.543 21.261a32 32 0 0 1 -31.565 26.739z" fill="#a36f58"/><path d="m412.892 352h-25.784a32 32 0 0 1 -31.565-26.739l-3.543-21.261h96l-3.543 21.261a32 32 0 0 1 -31.565 26.739z" fill="#a36f58"/><path d="m488 264h-4.494l-11.771-76.594a39.956 39.956 0 0 0 -39.735-35.406h-352a39.956 39.956 0 0 0 -39.735 35.406l-11.771 76.594h-4.494a8 8 0 0 0 -8 8v32a8 8 0 0 0 8 8h33.223l2.429 14.576a39.875 39.875 0 0 0 39.456 33.424h25.784a39.859 39.859 0 0 0 35.108-20.8 39.859 39.859 0 0 0 35.108 20.8h25.784a39.859 39.859 0 0 0 35.108-20.8 39.859 39.859 0 0 0 35.108 20.8h25.784a39.859 39.859 0 0 0 35.108-20.8 39.859 39.859 0 0 0 35.108 20.8h25.784a39.875 39.875 0 0 0 39.456-33.424l2.429-14.576h33.223a8 8 0 0 0 8-8v-32a8 8 0 0 0 -8-8zm-431.9-74.319c.017-.111.032-.221.044-.331a23.976 23.976 0 0 1 23.856-21.35h352a23.976 23.976 0 0 1 23.853 21.35c.012.11.027.22.044.331l11.421 74.319h-19.318c0-16.688-4.708-35.845-12.6-51.244-9.492-18.544-22.066-28.756-35.4-28.756s-25.908 10.212-35.4 28.756c-7.892 15.399-12.6 34.556-12.6 51.244 0-16.688-4.708-35.845-12.6-51.244-9.492-18.544-22.066-28.756-35.4-28.756s-25.908 10.212-35.4 28.756c-7.892 15.399-12.6 34.556-12.6 51.244 0-16.688-4.708-35.845-12.595-51.244-9.497-18.544-22.071-28.756-35.405-28.756s-25.908 10.212-35.4 28.756c-7.892 15.399-12.6 34.556-12.6 51.244 0-16.688-4.708-35.845-12.595-51.244-9.497-18.544-22.071-28.756-35.405-28.756s-25.908 10.212-35.4 28.756c-7.892 15.399-12.6 34.556-12.6 51.244h-19.318zm375.9 74.319h-64c0-29.906 17.047-64 32-64s32 34.094 32 64zm-96 0h-64c0-29.906 17.047-64 32-64s32 34.094 32 64zm-96 0h-64c0-29.906 17.047-64 32-64s32 34.094 32 64zm-96 0h-64c0-29.906 17.047-64 32-64s32 34.094 32 64zm4.565 59.945a23.926 23.926 0 0 1 -23.673 20.055h-25.784a23.926 23.926 0 0 1 -23.673-20.055l-1.991-11.945h77.112zm96 0a23.926 23.926 0 0 1 -23.673 20.055h-25.784a23.926 23.926 0 0 1 -23.673-20.055l-1.991-11.945h77.112zm96 0a23.926 23.926 0 0 1 -23.673 20.055h-25.784a23.926 23.926 0 0 1 -23.673-20.055l-1.991-11.945h77.112zm96 0a23.926 23.926 0 0 1 -23.673 20.055h-25.784a23.926 23.926 0 0 1 -23.673-20.055l-1.991-11.945h77.112zm43.435-27.945h-448v-16h448z"/></svg>