<svg id="Filled" height="512" viewBox="0 0 512 512" width="512" xmlns="http://www.w3.org/2000/svg"><path d="m344 88s0-48-32-64c-32 16-32 64-32 64v72h64z" fill="#35a872"/><path d="m336 192s9.455-80 104-80c0 0-47.273 40-47.273 80z" fill="#248256"/><path d="m288 192s-9.455-80-104-80c0 0 47.273 40 47.273 80z" fill="#248256"/><path d="m304 152s9.455-80 104-80c0 0-47.273 40-47.273 80z" fill="#319c6a"/><path d="m320 152s-9.455-80-104-80c0 0 47.273 40 47.273 80z" fill="#2e9163"/><rect fill="#f7b030" height="304" rx="128" width="256" x="184" y="144"/><g fill="#e09f2c"><path d="m402.79 318.2-45.26 43.89-45.41-44.08 45.26-43.94z"/><path d="m312.12 318.01-45.4 44.08-45.27-43.9 45.4-44.14z"/><path d="m309.87 144.02-43.14 41.93-22.93-22.28a127.231 127.231 0 0 1 66.07-19.65z"/><path d="m312.1 230.05-45.25 44-45.41-44.08 45.29-44.02z"/><path d="m402.81 229.97-45.43 44.1-45.28-44.02 45.39-44.12z"/><path d="m380.31 163.74-22.82 22.19-43.11-41.91a127.258 127.258 0 0 1 65.93 19.72z"/><path d="m221.44 229.97-37.31 36.27a127.238 127.238 0 0 1 16.17-56.79z"/><path d="m439.86 265.98-37.05-36.01 20.97-20.36a127.14 127.14 0 0 1 16.08 56.37z"/><path d="m440 282.12v37.88a127.891 127.891 0 0 1 -3.73 30.76l-33.48-32.56z"/><path d="m221.45 318.19-33.68 32.75a128.261 128.261 0 0 1 -3.77-30.94v-38.12z"/></g><path d="m266.72 362.09-47.49 46.11a127.877 127.877 0 0 1 -31.46-57.26l33.68-32.75z" fill="#f7b030"/><path d="m404.89 408.07a128.015 128.015 0 0 1 -185.66.13l47.49-46.11 45.4 44.03 45.41-44.03z" fill="#e09f2c"/><path d="m349.25 442.12a1.831 1.831 0 0 0 -.3.46 128.6 128.6 0 0 1 -73.95-.02v-.44l37.12-36z" fill="#f7b030"/><path d="m488 328c0 77.32-82.38 160-184 160s-184-82.68-184-160z" fill="#35a872"/><path d="m455.67 328c-5.21 63.3-71.12 128-151.67 128s-146.46-64.7-151.67-128z" fill="#d13330"/><path d="m183.912 280c-6.38 0-23 4.354-29.855 9.5a29.742 29.742 0 0 1 -36.114 0c-6.854-5.145-23.475-9.5-29.855-9.5-41.723 0-69.92 37.576-63.06 83.661l5 33.576a170.458 170.458 0 0 0 19.586 57.937c14.323 25.666 41.786 38.077 68.005 30.736l13.381-4.788a14.779 14.779 0 0 1 10 0l13.381 4.788c26.222 7.341 53.682-5.07 68.008-30.736a170.458 170.458 0 0 0 19.586-57.937l5-33.576c6.857-46.085-21.34-83.661-63.063-83.661z" fill="#eb423f"/><path d="m488 320h-40v-48a135.646 135.646 0 0 0 -43.391-99.5c10.8-28.9 40.247-54.13 40.558-54.4a8 8 0 0 0 -5.167-14.1c-23.13 0-43.238 4.541-60.1 13.524a142.337 142.337 0 0 1 10.562-15.341 184.9 184.9 0 0 1 22.7-24.076 8 8 0 0 0 -5.162-14.107c-21.625 0-40.7 4.027-56.942 11.959-2.243-16.727-9.829-46.289-35.48-59.114a8 8 0 0 0 -7.156 0c-25.622 12.811-33.222 42.322-35.473 59.06-16.189-7.912-35.233-11.905-56.949-11.905a8 8 0 0 0 -5.171 14.1 184.837 184.837 0 0 1 22.706 24.079 142.487 142.487 0 0 1 10.541 15.3c-16.829-8.952-36.919-13.479-60.076-13.479a8 8 0 0 0 -5.171 14.1c.315.267 29.76 25.5 40.562 54.4a135.646 135.646 0 0 0 -43.391 99.5v.918c-8.827 1.677-20.508 5.5-26.746 10.183a23.539 23.539 0 0 1 -2.789 1.79c2.107-19.267 5.837-38.922 12.191-48.453a8 8 0 1 0 -13.312-8.874c-7.253 10.88-12.349 30.82-15.161 59.241a22.682 22.682 0 0 1 -7.437-3.7c-8.438-6.338-26.846-11.105-34.658-11.105-20.916 0-39.788 8.528-53.139 24.013-15.217 17.65-21.717 42.736-17.834 68.825l5 33.577a177.583 177.583 0 0 0 20.514 60.658c13.061 23.4 35.725 36.958 59.7 36.957a64.634 64.634 0 0 0 17.45-2.416q.273-.076.538-.172l13.382-4.787a6.774 6.774 0 0 1 4.61 0l13.381 4.787c.177.064.357.121.538.172a64.646 64.646 0 0 0 17.451 2.416c17.534 0 34.364-7.261 47.253-20.313a199.9 199.9 0 0 0 87.068 20.283c49.8 0 97.916-18.855 135.5-53.091 35.905-32.715 56.5-74.597 56.5-114.909a8 8 0 0 0 -8-8zm-209.775-40.1 33.88-32.9 33.948 32.957-33.865 32.843zm18.4 40.1h-45.74a79.537 79.537 0 0 0 -4.13-9.541l19.983-19.406zm60.911-28.894 29.764 28.894h-59.56zm-33.951-55.258 33.851-32.874 33.976 33-33.87 32.843zm5.6-82.612a119.134 119.134 0 0 1 41.788 14.289l-13.537 13.146zm16.768 38.587-33.853 32.877-33.835-32.847 33.859-32.881zm-79.17-11.123-13.64-13.242a119.1 119.1 0 0 1 41.965-14.258zm0 22.3 33.837 32.85-33.893 32.914-33.876-32.81zm-11.541 76.915-17.467 16.965c-.241-.289-.478-.582-.724-.867a68.407 68.407 0 0 0 -42.16-23.195l26.476-25.712zm-5.356 118.5 5-33.577a96.693 96.693 0 0 0 .034-28.838h191.658c-4.613 26.417-20.233 52.881-43.795 73.749-27.851 24.667-62.933 38.251-98.783 38.251a146.623 146.623 0 0 1 -62.955-14.49 180.97 180.97 0 0 0 8.842-35.095zm168.571-78.415 13.543-13.116v13.116zm13.543-35.389-29.126 28.207-33.843-32.855 33.869-32.842 29.1 28.262zm-1.784-33.265-15.826-15.368 8.963-8.692a118.908 118.908 0 0 1 6.863 24.06zm-14.237-39.2-13.073 12.677-33.984-33 15.722-15.268a120.912 120.912 0 0 1 31.335 35.594zm2.981-90.616c-9.188 10.128-20.267 24.372-27.277 40.326a136.15 136.15 0 0 0 -22.812-13.381c.1-1.246.252-2.492.448-3.738 12.888-12.337 29.524-20.11 49.641-23.204zm-32.009-40c-12.99 14.321-29.755 36.867-33.466 60.941a134.954 134.954 0 0 0 -28.978-5.9c-.938-2.913-2.139-6.209-3.664-9.75 9.823-18.813 28.957-39.552 66.108-45.283zm-74.951-48.323c19.825 12.915 23.276 42.533 23.875 51.9a97.241 97.241 0 0 0 -23.887 25.235 98.949 98.949 0 0 0 -12.629-15.592 97.243 97.243 0 0 0 -11.232-9.665c.602-9.39 4.063-38.973 23.873-51.878zm-74.94 48.343c44.324 6.88 62.782 35.164 70.312 54.537a135.295 135.295 0 0 0 -36.857 6.392q-.375-2.436-.924-4.847l.282-.261c-.146-.158-.3-.31-.444-.466-5.198-21.944-20.389-42.145-32.369-55.355zm-32.024 39.979c20.14 3.091 36.762 10.874 49.648 23.227.194 1.24.347 2.482.445 3.722a136.15 136.15 0 0 0 -22.812 13.381c-7.011-15.959-18.092-30.202-27.281-40.33zm34.424 54.947 15.84 15.377-33.946 32.965-13.24-12.824a120.9 120.9 0 0 1 31.346-35.518zm-38.74 50.632 9.149 8.862-16.133 15.666a118.986 118.986 0 0 1 6.984-24.528zm14.68 224.167c-10.141 18.175-27.567 28.725-45.866 28.725a48.131 48.131 0 0 1 -12.734-1.724l-13.1-4.686a22.893 22.893 0 0 0 -15.39 0l-13.11 4.689c-22.6 6.191-46.118-4.634-58.6-27a161.624 161.624 0 0 1 -18.659-55.216l-5-33.576c-3.2-21.482 1.952-41.9 14.127-56.022a53.249 53.249 0 0 1 41.02-18.465c5.082 0 19.94 4.059 25.053 7.9a38.271 38.271 0 0 0 15.75 7.013c-.394 6.368-.614 11.965-.737 16.251-6.914-1.552-10.4-4.729-10.589-4.907l.088.087a8 8 0 1 0 -11.306 11.321c1.073 1.068 10.897 10.335 29.653 10.335 18.772 0 28.6-9.285 29.657-10.343a8 8 0 1 0 -11.314-11.314c-.042.042-3.459 3.148-10.2 4.739.139-4.833.392-10.492.793-16.568a38.372 38.372 0 0 0 13.922-6.617c5.113-3.838 19.971-7.9 25.053-7.9a53.249 53.249 0 0 1 41.021 18.461c12.175 14.121 17.324 34.54 14.127 56.022l-5 33.576a161.639 161.639 0 0 1 -18.659 55.219zm213.32-20.194c-34.627 31.546-78.92 48.919-124.72 48.919a183.62 183.62 0 0 1 -76.872-17.161c.775-1.227 1.528-2.479 2.246-3.766q2.953-5.29 5.529-10.772a162.625 162.625 0 0 0 69.097 15.699c39.762 0 78.611-15.013 109.392-42.274 27.05-23.957 44.751-54.839 49.387-85.726h16.914c-2.544 33.353-20.803 67.6-50.973 95.081z"/><circle cx="408" cy="360" r="8"/><circle cx="368" cy="400" r="8"/><circle cx="328" cy="376" r="8"/><circle cx="280" cy="376" r="8"/><circle cx="304" cy="424" r="8"/></svg>