<svg id="Filled" height="512" viewBox="0 0 512 512" width="512" xmlns="http://www.w3.org/2000/svg"><path d="m296 24h128v32h-128z" fill="#a3d4f7"/><path d="m456 152-32-96h-128l-32 96z" fill="#e9eef2"/><path d="m56 120h176v368h-176z" fill="#a3d4f7"/><path d="m56 280c0 57.438 78.8 104 176 104v104h-176z" fill="#e9eef2"/><path d="m232 288c0 57.438-78.8 104-176 104v96h176" fill="#e1e3e6"/><path d="m80 88h48v32h-48z" fill="#2d85cc"/><path d="m379.2 152h-115.2v336h115.2 76.8v-336z" fill="#a3d4f7"/><path d="m456 256v232h-192v-152s39.64-59.81 102.4-50c64 10 89.6-30 89.6-30z" fill="#e1e3e6"/><circle cx="360" cy="104" fill="#2d85cc" r="16"/><path d="m272 184v14.792a60 60 0 0 0 9.12 31.8l.48.767a200.006 200.006 0 0 1 30.4 106v118.641a32 32 0 0 1 -32 32h-64a32 32 0 0 1 -32-32v-118.641a200.006 200.006 0 0 1 30.4-106l.48-.767a60 60 0 0 0 9.12-31.8v-14.792" fill="#e1e3e6"/><path d="m312 337.36v118.64a32 32 0 0 1 -32 32h-64a32 32 0 0 1 -32-32v-118.64a200.061 200.061 0 0 1 17.29-81.36h93.42a200.061 200.061 0 0 1 17.29 81.36z" fill="#e9eef2"/><rect fill="#2d85cc" height="32" rx="16" width="96" x="200" y="152"/><path d="m144 184-5.839 10.38c-3.988 7.09-10.161 13.62-13.949 20.24-2.152 3.761-4.212 7.571-4.212 12.047 0 12.131 10.207 21.9 24 21.308 13.793.589 24-9.177 24-21.308 0-4.476-2.06-8.286-4.212-12.047-3.788-6.62-9.961-13.15-13.949-20.24z" fill="#e1e3e6"/><path d="m360 80a24 24 0 1 0 24 24 24.028 24.028 0 0 0 -24-24zm0 32a8 8 0 1 1 8-8 8.009 8.009 0 0 1 -8 8z"/><path d="m463.59 149.47-31.59-94.77v-30.7a8 8 0 0 0 -8-8h-128a8 8 0 0 0 -8 8v30.7l-29.766 89.3h-18.234v-24a8 8 0 0 0 -8-8h-96v-24a8 8 0 0 0 -8-8h-48a8 8 0 0 0 -8 8v24h-16a8 8 0 0 0 -8 8v368a8 8 0 0 0 8 8h400a8 8 0 0 0 8-8v-336a7.957 7.957 0 0 0 -.415-2.529zm-159.59-117.47h112v16h-112zm-2.233 32h116.466l26.667 80h-169.8zm-21.767 96a8 8 0 0 1 0 16h-64a8 8 0 0 1 0-16zm-5.665 74.83.48.77q3.8 6.081 7.119 12.4h-67.868q3.323-6.314 7.12-12.4l.478-.766a67.924 67.924 0 0 0 10.336-36.042v-6.792h32v6.792a67.92 67.92 0 0 0 10.335 36.038zm-186.335-138.83h32v16h-32zm-24 32h160v16h-8a24 24 0 0 0 0 48v6.792a51.946 51.946 0 0 1 -7.905 27.562l-.479.765a207.788 207.788 0 0 0 -31.616 110.24v17.508a176.764 176.764 0 0 1 -20.835 10.374c-55.472-16.529-91.165-49.789-91.165-85.241zm0 198.065a110.859 110.859 0 0 0 14.292 15.86c13.811 12.734 31.734 23.548 52.6 31.844a271.024 271.024 0 0 1 -66.892 10.115zm0 153.935v-80.109c41.73-1.059 80.734-10.4 112-26.735v82.844a39.788 39.788 0 0 0 8.022 24zm240-24a24.028 24.028 0 0 1 -24 24h-64a24.027 24.027 0 0 1 -24-24v-118.641a191.8 191.8 0 0 1 14.621-73.486 8.036 8.036 0 0 0 1.379.127h80a8.036 8.036 0 0 0 1.379-.127 191.8 191.8 0 0 1 14.621 73.486zm144 24h-136.022a39.788 39.788 0 0 0 8.022-24v-118.641a208.227 208.227 0 0 0 -3.168-36.2c15.7-7.366 31.941-9.815 48.333-7.251a138.3 138.3 0 0 0 21.381 1.722c29.435 0 49.371-10.433 61.454-19.967zm0-226.61c-5.534 6.974-29.693 32.625-80.364 24.706a97.248 97.248 0 0 0 -54.289 7.076 207.87 207.87 0 0 0 -24.962-58.051l-.481-.769a51.942 51.942 0 0 1 -7.9-27.56v-6.792a23.992 23.992 0 0 0 22.624-32h145.372z"/><path d="m144 255.98q.6.02 1.192.02a31.323 31.323 0 0 0 21.931-8.521 28.57 28.57 0 0 0 8.877-20.812c0-6.812-3.045-12.134-5.269-16.02a102.943 102.943 0 0 0 -7.22-10.475 91.625 91.625 0 0 1 -6.7-9.714l-5.839-10.38a8 8 0 0 0 -13.946 0l-5.839 10.38a91.625 91.625 0 0 1 -6.7 9.714 102.943 102.943 0 0 0 -7.22 10.475c-2.224 3.886-5.269 9.208-5.269 16.02a28.57 28.57 0 0 0 8.877 20.812 31.513 31.513 0 0 0 23.125 8.501zm-12.844-37.387a90.128 90.128 0 0 1 6.122-8.806c2.294-3.051 4.653-6.188 6.722-9.558 2.069 3.37 4.428 6.507 6.722 9.558a90.128 90.128 0 0 1 6.122 8.806c1.788 3.126 3.156 5.7 3.156 8.074a12.712 12.712 0 0 1 -3.947 9.26 15.66 15.66 0 0 1 -11.711 4.054q-.171-.006-.342-.006t-.342.006a15.634 15.634 0 0 1 -11.711-4.054 12.712 12.712 0 0 1 -3.947-9.26c0-2.367 1.368-4.948 3.156-8.074z"/></svg>