<svg id="Filled" height="512" viewBox="0 0 512 512" width="512" xmlns="http://www.w3.org/2000/svg"><path d="m296 456h-256s-16-128-16-200 16-200 16-200h256s16 128 16 200-16 200-16 200z" fill="#eb423f"/><ellipse cx="168" cy="144" fill="#a82a27" rx="80" ry="40"/><path d="m296 56h-256l-16-32h288z" fill="#c7312e"/><path d="m40 456h256l16 32h-288z" fill="#c7312e"/><path d="m178.546 264c30.928 0 56 5.49 56 32s-25.072 48-56 48-56-21.49-56-48 25.072-32 56-32z" fill="#e09f2c"/><path d="m144.782 267.716c21.869 21.869 35.716 43.48 16.971 62.225s-51.67 16.213-73.54-5.657-24.4-54.794-5.656-73.539 40.356-4.899 62.225 16.971z" fill="#f7b030"/><path d="m200 184h224v304h-224z" fill="#f7b030"/><path d="m424 184h64v304h-64z" fill="#e09f2c"/><circle cx="312" cy="352" fill="#d49073" r="56"/><path d="m248 224h128v32h-128z" fill="#ad6643"/><path d="m208 136h-80a8 8 0 0 0 0 16h80a8 8 0 0 0 0-16z"/><path d="m488 176h-171.82c-4.166-53.527-10.508-106.775-11.945-118.581l14.92-29.841a8 8 0 0 0 -7.155-11.578h-288a8 8 0 0 0 -7.155 11.578l14.921 29.842c-2.187 17.989-15.766 132.349-15.766 198.58s13.579 180.591 15.766 198.58l-14.921 29.842a8 8 0 0 0 7.155 11.578h464a8 8 0 0 0 8-8v-304a8 8 0 0 0 -8-8zm-188.944-144-8 16h-246.112l-8-16zm-107.056 448h-155.056l8-16h147.056zm0-145.608a56.662 56.662 0 0 1 -24.012.606c21.234-21.948 6.161-46.543-7.341-62.139a164.5 164.5 0 0 1 17.9-.859c4.962 0 9.415.146 13.454.443zm-35.9-10.108c-7.388 7.388-17.8 10.971-29.327 10.083-11.988-.922-23.67-6.512-32.9-15.74s-14.817-20.911-15.739-32.9c-.887-11.523 2.694-21.939 10.083-29.327 4.328-4.328 8.728-6.438 13.682-6.438a22.713 22.713 0 0 1 7.842 1.545c8.116 2.983 17.454 9.93 29.387 21.864 29.827 29.829 25.782 42.099 16.972 50.913zm35.9-67.874c-4.118-.271-8.569-.41-13.454-.41-12.843 0-22.984.93-31.336 2.9-12.185-11.731-22.413-18.9-31.952-22.4-14.235-5.233-27.5-2.26-38.359 8.6-10.743 10.732-15.971 25.6-14.721 41.857 1.215 15.793 8.452 31.058 20.379 42.984s27.192 19.164 42.984 20.379q2.371.181 4.7.181a54.5 54.5 0 0 0 20.719-3.972 72.045 72.045 0 0 0 27.586 5.471 73.17 73.17 0 0 0 13.454-1.25v97.25h-144.91c-3.298-27.675-15.09-130.892-15.09-192s11.792-164.323 15.09-192h241.821c2.073 17.369 7.49 64.455 11.22 112h-65.785c14.024-8.628 21.654-19.818 21.654-32 0-13.873-9.892-26.459-27.854-35.439-16.199-8.101-37.559-12.561-60.146-12.561s-43.947 4.46-60.146 12.561c-17.962 8.98-27.854 21.566-27.854 35.439s9.892 26.459 27.854 35.439c16.199 8.101 37.559 12.561 60.146 12.561a163.988 163.988 0 0 0 24-1.743zm-24-80.41c-42.431 0-72-16.864-72-32s29.569-32 72-32 72 16.864 72 32-29.569 32-72 32zm248 304h-208v-288h208zm64 0h-48v-288h48z"/><path d="m312 288a64 64 0 1 0 64 64 64.072 64.072 0 0 0 -64-64zm0 112a47.9 47.9 0 0 1 -11.484-1.4 8 8 0 1 0 -12.346-4.961 47.921 47.921 0 0 1 -14.919-69.924 8.037 8.037 0 1 0 .771-1.02 47.938 47.938 0 0 1 37.978-18.695 8 8 0 0 0 15.559 2.6 47.993 47.993 0 0 1 -15.559 93.4z"/><circle cx="288" cy="360" r="8"/><circle cx="328" cy="376" r="8"/><circle cx="352" cy="352" r="8"/><circle cx="320" cy="336" r="8"/><path d="m248 264h128a8 8 0 0 0 8-8v-32a8 8 0 0 0 -8-8h-128a8 8 0 0 0 -8 8v32a8 8 0 0 0 8 8zm8-32h112v16h-112z"/><path d="m344 440h-64a8 8 0 0 0 0 16h64a8 8 0 0 0 0-16z"/><path d="m104 416h40a8 8 0 0 0 0-16h-40a8 8 0 0 0 0 16z"/><circle cx="72" cy="408" r="8"/></svg>